<?xml version="1.0" encoding="UTF-8"?>
<!DOCTYPE svg PUBLIC "-//W3C//DTD SVG 1.1//EN" "http://www.w3.org/Graphics/SVG/1.1/DTD/svg11.dtd">
<!-- Creator: CorelDRAW (Evaluation Version) -->
<svg xmlns="http://www.w3.org/2000/svg" xml:space="preserve" width="8.5in" height="11in" version="1.1" style="shape-rendering:geometricPrecision; text-rendering:geometricPrecision; image-rendering:optimizeQuality; fill-rule:evenodd; clip-rule:evenodd"
viewBox="0 0 8500 11000"
 xmlns:xlink="http://www.w3.org/1999/xlink"
 xmlns:xodm="http://www.corel.com/coreldraw/odm/2003">
 <defs>
  <style type="text/css">
   <![CDATA[
    .fil3 {fill:#3B8AC4}
    .fil0 {fill:#356AA5}
    .fil2 {fill:#364D89}
    .fil1 {fill:#4BAADF;fill-rule:nonzero}
    .fil4 {fill:#3B8AC4;fill-rule:nonzero}
   ]]>
  </style>
 </defs>
 <g id="Layer_x0020_1">
  <metadata id="CorelCorpID_0Corel-Layer"/>
  <path class="fil0" d="M2867.76 4837.29c348.38,-214.23 732.28,-349.91 1144.48,-349.91 412.19,0 796.1,135.67 1144.48,349.91l114.83 70.61 4.22 134.72c6.3,200.8 -9.05,390.69 -45.48,569.28l-73.57 -45.25c-51.23,-31.51 -103.26,-61.3 -155.99,-89.23 21.26,-135.02 29.56,-277.36 24.87,-426.95 -339.16,-208.55 -676.93,-312.38 -1013.36,-312.79 -336.43,0.41 -674.21,104.24 -1013.37,312.79 -4.69,149.59 3.59,291.93 24.87,426.95 -52.75,27.93 -104.76,57.72 -155.99,89.23l-73.57 45.25c-36.43,-178.59 -51.78,-368.48 -45.46,-569.28l4.2 -134.72 114.83 -70.61z"/>
  <path class="fil1" d="M5129.15 5954.34c-177.34,448.51 -512.55,809 -997.82,1071.5l-119.09 64.41 -119.1 -64.41c-485.27,-262.5 -820.48,-622.99 -997.82,-1071.5 72.37,-43.4 146.23,-83.38 221.53,-119.41 151.98,405.59 449.63,729.64 895.39,970.78 445.76,-241.14 743.4,-565.19 895.41,-970.78 75.28,36.03 149.16,76.01 221.5,119.41z"/>
  <path class="fil1" d="M4587.77 6091.32c179.02,-263.48 269.65,-577.51 272.2,-944.87 -260.58,-147.15 -544.53,-241.92 -847.72,-241.92 -36.2,-0.02 -72.13,1.36 -107.76,4 8.04,85.89 21.43,168.61 40.17,248.19 22.4,-1.27 44.95,-1.93 67.6,-1.93 207.56,0 405.2,53.91 590.56,140.41 -21.07,243.44 -90.48,454.35 -209.82,636.98 59.58,56.02 124.5,109.07 194.79,159.14z"/>
  <path class="fil0" d="M3164.51 5146.45c4.5,651.96 286.5,1136.05 847.73,1467.59 154.97,-91.55 288.65,-194.76 401.08,-309.93 -73.45,-46.82 -141.73,-96.5 -204.8,-149.07 -58.83,57.24 -124.22,111.06 -196.3,161.61 -359.04,-251.89 -552.7,-584.25 -590.56,-1021.46 77.22,-36.03 156.58,-66.4 237.91,-89.57 -13.99,-80.98 -22.74,-165.02 -26.35,-252.19 -163.35,41.97 -319.84,108.93 -468.7,193z"/>
  <path class="fil2" d="M3602.96 5399.84c48.97,290 182.76,519.86 409.28,707.3 226.51,-187.44 360.3,-417.31 409.28,-707.3 -130.97,-48.97 -267.84,-78.18 -409.28,-78.18 -141.46,0 -278.32,29.2 -409.28,78.18z"/>
  <path class="fil3" d="M3602.98 5399.84c48.95,290 182.74,519.88 409.26,707.3l0 -785.48c-141.46,0 -278.32,29.2 -409.26,78.18z"/>
  <path class="fil2" d="M2998.87 5050.47c191.38,-117.69 382.33,-202.02 572.85,-253.26l-818.78 110.68 270.81 569.53c-21.3,-135.02 -29.58,-277.38 -24.89,-426.95z"/>
  <path class="fil2" d="M4452.74 4797.22c190.52,51.24 381.47,135.57 572.85,253.26 4.69,149.57 -3.61,291.93 -24.87,426.95l270.82 -569.53 -818.8 -110.68z"/>
  <path class="fil4" d="M4859.96 5146.45l-806.96 9.06c192.69,6.5 376.61,58.88 549.8,139.7 -17.67,204.08 -69.3,385.31 -155.74,546l412.91 -694.76z"/>
  <path class="fil2" d="M3421.65 5295.2c77.22,-36.03 156.58,-66.4 237.91,-89.57l-495.05 -59.19 432.02 729.03c-98.04,-169.24 -155.93,-361.63 -174.87,-580.28z"/>
  <path class="fil2" d="M4012.22 6316.67c-179.49,-125.92 -317.65,-271.98 -415.69,-441.18l415.72 738.56 196.28 -459c-58.83,57.24 -124.22,111.06 -196.3,161.61z"/>
  <path class="fil4" d="M4012.24 6805.71c-146.59,-79.32 -277.16,-167.56 -391.8,-264.76l391.8 549.3 391.79 -549.3c-114.64,97.2 -245.21,185.44 -391.79,264.76z"/>
 </g>
</svg>
